<?xml version="1.0" encoding="UTF-8"?>
<!DOCTYPE svg PUBLIC "-//W3C//DTD SVG 1.1//EN" "http://www.w3.org/Graphics/SVG/1.1/DTD/svg11.dtd">
<svg xmlns="http://www.w3.org/2000/svg" version="1.1" width="512px" height="512px" style="shape-rendering:geometricPrecision; text-rendering:geometricPrecision; image-rendering:optimizeQuality; fill-rule:evenodd; clip-rule:evenodd" xmlns:xlink="http://www.w3.org/1999/xlink">
<g><path style="opacity:0.985" fill="#030202" d="M 245.5,-0.5 C 252.5,-0.5 259.5,-0.5 266.5,-0.5C 270.429,0.869545 274.429,2.36954 278.5,4C 280.227,6.90361 280.893,10.0703 280.5,13.5C 278.461,15.8533 275.794,17.1866 272.5,17.5C 250.984,10.2834 233.817,15.95 221,34.5C 217.362,41.0169 215.362,48.0169 215,55.5C 213.568,57.4388 211.735,58.7721 209.5,59.5C 205.445,59.1159 202.445,57.1159 200.5,53.5C 195.385,43.4264 187.051,38.093 175.5,37.5C 156.016,41.152 147.516,52.8187 150,72.5C 150.608,74.0664 151.442,75.3998 152.5,76.5C 152.552,78.9029 152.219,81.2362 151.5,83.5C 150.373,84.1217 149.373,84.955 148.5,86C 144.484,86.1859 140.484,86.1859 136.5,86C 132.508,88.3356 130.675,91.8356 131,96.5C 130.535,97.9308 129.701,99.0975 128.5,100C 114.581,98.2005 105.081,103.7 100,116.5C 99.0551,121.808 100.222,126.475 103.5,130.5C 104.203,132.716 105.536,134.549 107.5,136C 125.674,133.71 142.341,137.71 157.5,148C 158.5,148.667 159.5,148.667 160.5,148C 162.208,146.49 163.874,144.99 165.5,143.5C 155.313,123.423 158.313,105.59 174.5,90C 181.508,84.3292 189.508,81.1625 198.5,80.5C 206.778,79.7153 209.945,83.382 208,91.5C 206.786,93.0488 205.286,94.2155 203.5,95C 183.342,96.4908 173.842,107.324 175,127.5C 176.074,131.319 177.907,134.652 180.5,137.5C 197.036,133.716 212.036,137.049 225.5,147.5C 231.04,143.229 237.04,139.729 243.5,137C 253.013,134.792 262.346,135.459 271.5,139C 277.49,141.66 283.156,144.826 288.5,148.5C 303.226,135.313 319.892,132.147 338.5,139C 344.557,141.778 350.391,144.945 356,148.5C 364.697,142.569 374.197,138.403 384.5,136C 391.954,135.392 399.288,135.725 406.5,137C 416.839,117.016 411.839,102.349 391.5,93C 380.333,93.2273 375.833,87.7273 378,76.5C 374.305,68.8335 368.139,65.3335 359.5,66C 357.951,64.786 356.785,63.286 356,61.5C 352.903,47.8638 344.403,42.0304 330.5,44C 321.929,47.2372 317.096,53.4039 316,62.5C 315.215,64.286 314.049,65.786 312.5,67C 308.625,68.5204 304.625,68.8538 300.5,68C 298.333,67.1667 296.833,65.6667 296,63.5C 295.667,57.5 295.333,51.5 295,45.5C 293.939,41.0505 292.105,37.0505 289.5,33.5C 289.186,29.4682 290.519,26.1348 293.5,23.5C 296.187,23.3359 298.854,23.5026 301.5,24C 305.084,28.7488 307.917,33.9155 310,39.5C 320.952,28.6125 333.785,25.4458 348.5,30C 353.335,31.9144 357.669,34.5811 361.5,38C 364.894,42.3981 367.894,47.0648 370.5,52C 383.863,55.3648 391.697,63.8648 394,77.5C 419.537,86.5607 430.204,104.561 426,131.5C 424.989,135.368 423.489,139.034 421.5,142.5C 424.828,145.658 428.328,148.658 432,151.5C 433.779,154.613 434.945,157.946 435.5,161.5C 421.252,273.818 407.085,386.152 393,498.5C 391.383,504.942 387.55,509.275 381.5,511.5C 298.5,511.5 215.5,511.5 132.5,511.5C 125.804,508.293 121.97,502.959 121,495.5C 107.085,384.51 93.2512,273.51 79.5,162.5C 79.4114,158.933 80.2447,155.6 82,152.5C 85.0584,148.938 88.5584,145.938 92.5,143.5C 80.1965,124.578 82.1965,107.411 98.5,92C 104.222,88.0917 110.555,85.7584 117.5,85C 120.296,77.4426 125.629,72.9426 133.5,71.5C 132.406,48.1123 142.74,32.279 164.5,24C 179.096,20.4422 192.263,23.2756 204,32.5C 212.893,15.1541 226.726,4.15409 245.5,-0.5 Z"/></g>
<g><path style="opacity:1" fill="#f7c472" d="M 280.5,13.5 C 285.374,16.1068 289.708,19.4401 293.5,23.5C 290.519,26.1348 289.186,29.4682 289.5,33.5C 256.514,20.2744 232.848,29.9411 218.5,62.5C 214.642,64.0706 211.642,63.0706 209.5,59.5C 211.735,58.7721 213.568,57.4388 215,55.5C 215.362,48.0169 217.362,41.0169 221,34.5C 233.817,15.95 250.984,10.2834 272.5,17.5C 275.794,17.1866 278.461,15.8533 280.5,13.5 Z"/></g>
<g><path style="opacity:1" fill="#fad69e" d="M 289.5,33.5 C 292.105,37.0505 293.939,41.0505 295,45.5C 295.333,51.5 295.667,57.5 296,63.5C 296.833,65.6667 298.333,67.1667 300.5,68C 304.625,68.8538 308.625,68.5204 312.5,67C 314.049,65.786 315.215,64.286 316,62.5C 317.096,53.4039 321.929,47.2372 330.5,44C 344.403,42.0304 352.903,47.8638 356,61.5C 356.785,63.286 357.951,64.786 359.5,66C 368.139,65.3335 374.305,68.8335 378,76.5C 375.833,87.7273 380.333,93.2273 391.5,93C 411.839,102.349 416.839,117.016 406.5,137C 399.288,135.725 391.954,135.392 384.5,136C 374.197,138.403 364.697,142.569 356,148.5C 350.391,144.945 344.557,141.778 338.5,139C 319.892,132.147 303.226,135.313 288.5,148.5C 283.156,144.826 277.49,141.66 271.5,139C 262.346,135.459 253.013,134.792 243.5,137C 237.04,139.729 231.04,143.229 225.5,147.5C 212.036,137.049 197.036,133.716 180.5,137.5C 177.907,134.652 176.074,131.319 175,127.5C 173.842,107.324 183.342,96.4908 203.5,95C 205.286,94.2155 206.786,93.0488 208,91.5C 209.945,83.382 206.778,79.7153 198.5,80.5C 189.508,81.1625 181.508,84.3292 174.5,90C 158.313,105.59 155.313,123.423 165.5,143.5C 163.874,144.99 162.208,146.49 160.5,148C 159.5,148.667 158.5,148.667 157.5,148C 142.341,137.71 125.674,133.71 107.5,136C 105.536,134.549 104.203,132.716 103.5,130.5C 109.618,118.267 119.618,112.433 133.5,113C 136.167,109.333 138.833,105.667 141.5,102C 144.376,99.563 147.71,98.2297 151.5,98C 152.392,93.2362 152.392,88.4029 151.5,83.5C 152.219,81.2362 152.552,78.9029 152.5,76.5C 161.525,54.321 177.525,46.6543 200.5,53.5C 202.445,57.1159 205.445,59.1159 209.5,59.5C 211.642,63.0706 214.642,64.0706 218.5,62.5C 232.848,29.9411 256.514,20.2744 289.5,33.5 Z"/></g>
<g><path style="opacity:1" fill="#f6c371" d="M 200.5,53.5 C 177.525,46.6543 161.525,54.321 152.5,76.5C 151.442,75.3998 150.608,74.0664 150,72.5C 147.516,52.8187 156.016,41.152 175.5,37.5C 187.051,38.093 195.385,43.4264 200.5,53.5 Z"/></g>
<g><path style="opacity:1" fill="#090705" d="M 248.5,57.5 C 265.496,57.9964 274.329,66.6631 275,83.5C 270.663,90.9327 265.997,91.266 261,84.5C 260.849,76.3494 256.683,72.1828 248.5,72C 241.899,67.1709 241.899,62.3376 248.5,57.5 Z"/></g>
<g><path style="opacity:1" fill="#f4c270" d="M 151.5,83.5 C 152.392,88.4029 152.392,93.2362 151.5,98C 147.71,98.2297 144.376,99.563 141.5,102C 138.833,105.667 136.167,109.333 133.5,113C 119.618,112.433 109.618,118.267 103.5,130.5C 100.222,126.475 99.0551,121.808 100,116.5C 105.081,103.7 114.581,98.2005 128.5,100C 129.701,99.0975 130.535,97.9308 131,96.5C 130.675,91.8356 132.508,88.3356 136.5,86C 140.484,86.1859 144.484,86.1859 148.5,86C 149.373,84.955 150.373,84.1217 151.5,83.5 Z"/></g>
<g><path style="opacity:1" fill="#090805" d="M 322.5,86.5 C 326.637,86.1463 330.637,86.6463 334.5,88C 338.886,93.0745 338.219,97.4078 332.5,101C 325.726,100.634 320.893,103.467 318,109.5C 318.431,117.228 314.931,121.062 307.5,121C 305.333,120.167 303.833,118.667 303,116.5C 301.768,108.616 303.768,101.616 309,95.5C 313.136,91.8563 317.636,88.8563 322.5,86.5 Z"/></g>
<g><path style="opacity:1" fill="#edebed" d="M 137.5,154.5 C 133.847,155.786 132.18,158.453 132.5,162.5C 144.916,261.498 157.25,360.498 169.5,459.5C 156.833,459.5 144.167,459.5 131.5,459.5C 119.585,361.178 107.585,262.844 95.5,164.5C 95.3262,162.307 95.9929,160.473 97.5,159C 110.061,149.607 123.394,148.107 137.5,154.5 Z"/></g>
<g><path style="opacity:1" fill="#e33d53" d="M 179.5,410.5 C 178.708,404.87 178.375,399.203 178.5,393.5C 181.148,393.262 182.982,391.928 184,389.5C 179.433,317.801 174.1,246.134 168,174.5C 167.172,169.798 167.338,165.131 168.5,160.5C 185.325,146.886 201.825,147.219 218,161.5C 220.953,260.814 223.12,360.147 224.5,459.5C 213.167,459.5 201.833,459.5 190.5,459.5C 189.665,444.809 188.498,430.142 187,415.5C 185.207,412.692 182.707,411.026 179.5,410.5 Z"/></g>
<g><path style="opacity:1" fill="#f7f5f6" d="M 249.5,150.5 C 261.212,149.967 271.378,153.634 280,161.5C 278.713,260.839 276.879,360.172 274.5,459.5C 262.833,459.5 251.167,459.5 239.5,459.5C 237.872,359.821 236.039,260.154 234,160.5C 238.5,156.008 243.667,152.675 249.5,150.5 Z"/></g>
<g><path style="opacity:1" fill="#e23d53" d="M 348.5,224.5 C 349.833,230.5 349.833,236.5 348.5,242.5C 341.712,243.481 338.879,247.481 340,254.5C 334.28,322.798 329.114,391.131 324.5,459.5C 312.833,459.5 301.167,459.5 289.5,459.5C 291.644,360.167 293.811,260.834 296,161.5C 312.984,146.882 329.984,146.882 347,161.5C 346.219,178.823 345.052,196.156 343.5,213.5C 343.667,215.833 343.833,218.167 344,220.5C 344.748,222.751 346.248,224.084 348.5,224.5 Z"/></g>
<g><path style="opacity:1" fill="#f7f5f6" d="M 348.5,242.5 C 349.833,236.5 349.833,230.5 348.5,224.5C 353.624,225.536 356.79,223.536 358,218.5C 359.335,199.801 361.002,181.134 363,162.5C 379.466,148.362 396.966,146.862 415.5,158C 417.397,159.265 418.73,160.931 419.5,163C 406.879,261.804 394.545,360.637 382.5,459.5C 368.167,459.5 353.833,459.5 339.5,459.5C 344.398,389.638 349.731,319.805 355.5,250C 355.729,245.063 353.396,242.563 348.5,242.5 Z"/></g>
<g><path style="opacity:1" fill="#f4f2f3" d="M 137.5,154.5 C 142.842,156.254 147.675,158.921 152,162.5C 158.378,237.797 164.378,313.131 170,388.5C 171.484,392.488 174.317,394.154 178.5,393.5C 178.375,399.203 178.708,404.87 179.5,410.5C 174.233,411.682 171.899,415.015 172.5,420.5C 173.956,433.468 174.956,446.468 175.5,459.5C 173.5,459.5 171.5,459.5 169.5,459.5C 157.25,360.498 144.916,261.498 132.5,162.5C 132.18,158.453 133.847,155.786 137.5,154.5 Z"/></g>
<g><path style="opacity:0.954" fill="#010100" d="M -0.5,249.5 C -0.5,246.167 -0.5,242.833 -0.5,239.5C 2.36125,229.5 8.69459,222.5 18.5,218.5C 24.0516,204.387 34.3849,198.553 49.5,201C 62.9537,205.447 69.2871,214.613 68.5,228.5C 80.4388,241.651 80.4388,254.817 68.5,268C 57.167,275.16 45.667,275.326 34,268.5C 16.5798,272.528 5.07984,266.195 -0.5,249.5 Z"/></g>
<g><path style="opacity:1" fill="#f4c881" d="M 50.5,219.5 C 43.175,222.821 39.5083,228.487 39.5,236.5C 28.9225,237.413 22.9225,243.079 21.5,253.5C 18.909,252.746 17.0757,251.079 16,248.5C 14.6633,238.492 19.1633,233.325 29.5,233C 32.8067,229.931 34.3067,226.098 34,221.5C 38.8856,214.482 44.3856,213.815 50.5,219.5 Z"/></g>
<g><path style="opacity:1" fill="#f8d59c" d="M 50.5,219.5 C 52.5328,220.898 53.5328,222.898 53.5,225.5C 52.6208,228.812 52.4541,232.145 53,235.5C 55.8651,238.28 58.5318,241.28 61,244.5C 62.5,255 58,259.5 47.5,258C 45.0243,256.691 43.0243,254.858 41.5,252.5C 36.8176,249.667 32.4843,250.167 28.5,254C 25.9615,254.796 23.6282,254.629 21.5,253.5C 22.9225,243.079 28.9225,237.413 39.5,236.5C 39.5083,228.487 43.175,222.821 50.5,219.5 Z"/></g>
<g><path style="opacity:0.953" fill="#010101" d="M 511.5,320.5 C 511.5,323.833 511.5,327.167 511.5,330.5C 510.417,333.194 509.417,336.028 508.5,339C 513.103,359.549 505.103,371.715 484.5,375.5C 474.684,374.594 467.017,370.094 461.5,362C 441.423,357.674 433.59,345.507 438,325.5C 444.059,314.376 453.559,308.709 466.5,308.5C 473.622,301.075 482.289,298.575 492.5,301C 502.447,304.112 508.781,310.612 511.5,320.5 Z"/></g>
<g><path style="opacity:1" fill="#f8d59c" d="M 493.5,352.5 C 491.284,351.797 489.451,350.464 488,348.5C 486.66,345.798 485.327,343.131 484,340.5C 475.523,342.56 468.857,339.893 464,332.5C 463.023,330.26 462.523,327.927 462.5,325.5C 465.799,326.376 469.132,326.543 472.5,326C 475.167,322 478.5,318.667 482.5,316C 493.045,315.216 497.212,320.05 495,330.5C 489.41,335.127 489.076,340.127 494,345.5C 494.796,348.039 494.629,350.372 493.5,352.5 Z"/></g>
<g><path style="opacity:1" fill="#f5c982" d="M 462.5,325.5 C 462.523,327.927 463.023,330.26 464,332.5C 468.857,339.893 475.523,342.56 484,340.5C 485.327,343.131 486.66,345.798 488,348.5C 489.451,350.464 491.284,351.797 493.5,352.5C 493.089,356.079 491.089,358.246 487.5,359C 482.883,360.297 479.05,359.13 476,355.5C 475.239,352.091 473.739,349.091 471.5,346.5C 466.887,345.721 462.22,345.221 457.5,345C 449.513,338.618 449.513,332.285 457.5,326C 459.134,325.506 460.801,325.34 462.5,325.5 Z"/></g>
<g><path style="opacity:1" fill="#e33d53" d="M 134.5,474.5 C 216.5,474.5 298.5,474.5 380.5,474.5C 379.537,481.708 378.537,488.875 377.5,496C 297.5,496.667 217.5,496.667 137.5,496C 135.972,488.945 134.972,481.778 134.5,474.5 Z"/></g>
</svg>
